<?xml version="1.0" encoding="UTF-8"?>
<!DOCTYPE svg PUBLIC "-//W3C//DTD SVG 1.1//EN" "http://www.w3.org/Graphics/SVG/1.1/DTD/svg11.dtd">
<svg xmlns="http://www.w3.org/2000/svg" version="1.1" width="494px" height="494px" style="shape-rendering:geometricPrecision; text-rendering:geometricPrecision; image-rendering:optimizeQuality; fill-rule:evenodd; clip-rule:evenodd" xmlns:xlink="http://www.w3.org/1999/xlink">
<g><path style="opacity:0.999" fill="#0efefd" d="M 251.5,493.5 C 248.5,493.5 245.5,493.5 242.5,493.5C 236.129,490.879 230.629,486.879 226,481.5C 200.076,448.671 180.076,412.338 166,372.5C 150.234,329.072 141.734,284.238 140.5,238C 146.971,172.254 166.137,110.42 198,52.5C 208.1,34.8111 220.266,18.6444 234.5,4C 243.04,-0.927357 251.373,-0.594023 259.5,5C 284.217,33.439 303.717,65.2723 318,100.5C 337.32,147.295 348.487,195.961 351.5,246.5C 346.331,325.504 322.498,398.171 280,464.5C 273.919,473.252 267.086,481.418 259.5,489C 256.901,490.795 254.234,492.295 251.5,493.5 Z M 245.5,27.5 C 249.498,30.6652 252.998,34.3319 256,38.5C 303.292,107.385 326.625,183.718 326,267.5C 317.634,333.517 295.301,394.184 259,449.5C 255.021,455.143 250.688,460.476 246,465.5C 237.979,456.8 230.646,447.467 224,437.5C 197.906,392.222 179.906,343.889 170,292.5C 163.477,258.359 164.144,224.359 172,190.5C 182.742,137.371 203.075,88.3712 233,43.5C 237,38.0046 241.166,32.6713 245.5,27.5 Z M 246.5,232.5 C 250.22,236.101 252.553,240.601 253.5,246C 252.292,251.91 250.125,257.41 247,262.5C 244.377,256.486 242.544,250.486 241.5,244.5C 243.174,240.471 244.841,236.471 246.5,232.5 Z"/></g>
<g><path style="opacity:1" fill="#13fdfd" d="M 22.5,245.5 C 22.1818,250.032 22.5151,254.366 23.5,258.5C 27.1795,306.38 43.0128,349.714 71,388.5C 72.8945,398.278 68.8945,403.945 59,405.5C 57.3732,405.375 55.8732,404.875 54.5,404C 36.1798,382.21 22.3465,357.71 13,330.5C 7.84279,313.2 3.34279,295.866 -0.5,278.5C -0.5,260.167 -0.5,241.833 -0.5,223.5C 4.46419,176.1 21.2975,133.433 50,95.5C 58.1225,88.141 65.1225,89.141 71,98.5C 71.6667,101.167 71.6667,103.833 71,106.5C 40.2443,147.595 24.0776,193.928 22.5,245.5 Z"/></g>
<g><path style="opacity:1" fill="#10fdfd" d="M 493.5,234.5 C 493.5,243.833 493.5,253.167 493.5,262.5C 488.477,310.066 472.644,353.733 446,393.5C 443.203,397.299 440.036,400.799 436.5,404C 433.107,405.695 429.773,405.695 426.5,404C 419.653,399.71 417.819,393.877 421,386.5C 481.878,300.045 485.212,211.378 431,120.5C 428,116.833 425,113.167 422,109.5C 417.949,102.072 419.449,95.905 426.5,91C 430.295,90.1628 433.961,90.4961 437.5,92C 452.123,108.054 463.623,126.221 472,146.5C 483.908,174.798 491.075,204.131 493.5,234.5 Z"/></g>
<g><path style="opacity:1" fill="#13fdfd" d="M 49.5,273.5 C 48.1723,264.221 47.5057,254.888 47.5,245.5C 47.2598,239.773 47.5931,234.106 48.5,228.5C 48.6741,226.139 49.0074,223.806 49.5,221.5C 52.8872,200.059 60.7205,180.393 73,162.5C 78.6662,155.357 84.9996,154.69 92,160.5C 94.2448,163.881 94.9115,167.548 94,171.5C 88.81,179.88 84.1433,188.546 80,197.5C 69.2424,230.994 69.909,264.661 82,298.5C 85.6667,305.167 89.3333,311.833 93,318.5C 94.6105,330.556 89.4438,335.389 77.5,333C 75.3333,330.833 73.1667,328.667 71,326.5C 60.4981,310.166 53.3315,292.499 49.5,273.5 Z"/></g>
<g><path style="opacity:0.999" fill="#0dfdfd" d="M 418.5,236.5 C 419.124,236.083 419.457,235.416 419.5,234.5C 419.009,231.326 418.343,228.326 417.5,225.5C 414.463,206.891 407.963,189.558 398,173.5C 395.833,161 401,155.833 413.5,158C 430.007,178.162 439.507,201.328 442,227.5C 446.434,264.099 438.434,297.766 418,328.5C 411.261,335.112 404.594,335.112 398,328.5C 397.042,326.801 396.542,324.967 396.5,323C 402.948,310.764 408.615,298.097 413.5,285C 412.825,282.758 413.325,280.591 415,278.5C 418.273,264.53 419.44,250.53 418.5,236.5 Z"/></g>
<g><path style="opacity:1" fill="#0afefd" d="M 243.5,188.5 C 249.114,187.414 253.614,189.08 257,193.5C 261.168,208.501 267.501,222.501 276,235.5C 278.789,241.72 279.123,248.054 277,254.5C 268.872,268.921 261.705,283.755 255.5,299C 248.886,302.754 242.72,302.254 237,297.5C 232.352,283.87 226.352,270.87 219,258.5C 215.459,251.54 215.126,244.54 218,237.5C 226.583,223.335 233.25,208.335 238,192.5C 239.812,191.023 241.645,189.69 243.5,188.5 Z M 246.5,232.5 C 244.841,236.471 243.174,240.471 241.5,244.5C 242.544,250.486 244.377,256.486 247,262.5C 250.125,257.41 252.292,251.91 253.5,246C 252.553,240.601 250.22,236.101 246.5,232.5 Z"/></g>
<g><path style="opacity:0.004" fill="#9ec2cd" d="M 49.5,221.5 C 49.0074,223.806 48.6741,226.139 48.5,228.5C 47.1326,225.988 47.466,223.655 49.5,221.5 Z"/></g>
<g><path style="opacity:0.004" fill="#6aa3b9" d="M 417.5,225.5 C 418.343,228.326 419.009,231.326 419.5,234.5C 419.457,235.416 419.124,236.083 418.5,236.5C 417.656,232.901 417.323,229.234 417.5,225.5 Z"/></g>
<g><path style="opacity:0.192" fill="#a6d7e5" d="M 22.5,245.5 C 23.7773,246.694 24.4439,248.36 24.5,250.5C 24.2973,253.197 23.964,255.864 23.5,258.5C 22.5151,254.366 22.1818,250.032 22.5,245.5 Z"/></g>
<g><path style="opacity:0.122" fill="#28495e" d="M 403.5,255.5 C 400.5,255.5 397.5,255.5 394.5,255.5C 396.893,254.79 399.393,254.123 402,253.5C 402.717,254.044 403.217,254.711 403.5,255.5 Z"/></g>
<g><path style="opacity:0.023" fill="#94c0d5" d="M 394.5,255.5 C 397.5,255.5 400.5,255.5 403.5,255.5C 401.231,256.311 398.231,256.978 394.5,257.5C 393.227,256.743 393.227,256.077 394.5,255.5 Z"/></g>
<g><path style="opacity:0.024" fill="#9dcbda" d="M 47.5,245.5 C 47.5057,254.888 48.1723,264.221 49.5,273.5C 48.7784,273.082 48.2784,272.416 48,271.5C 46.5669,262.688 46.4002,254.022 47.5,245.5 Z"/></g>
</svg>
