<?xml version="1.0" encoding="UTF-8"?>
<svg xmlns="http://www.w3.org/2000/svg" xmlns:xlink="http://www.w3.org/1999/xlink" width="32px" height="32px" viewBox="0 0 32 32" version="1.1">
<defs>
<filter id="alpha" filterUnits="objectBoundingBox" x="0%" y="0%" width="100%" height="100%">
  <feColorMatrix type="matrix" in="SourceGraphic" values="0 0 0 0 1 0 0 0 0 1 0 0 0 0 1 0 0 0 1 0"/>
</filter>
<mask id="mask0">
  <g filter="url(#alpha)">
<rect x="0" y="0" width="32" height="32" style="fill:rgb(0%,0%,0%);fill-opacity:0.0235294;stroke:none;"/>
  </g>
</mask>
<clipPath id="clip1">
  <rect x="0" y="0" width="32" height="32"/>
</clipPath>
<g id="surface5" clip-path="url(#clip1)">
<path style=" stroke:none;fill-rule:evenodd;fill:rgb(44.705883%,60.392159%,68.627453%);fill-opacity:1;" d="M 26.007812 16.421875 C 26.082031 16.460938 26.144531 16.515625 26.203125 16.582031 C 25.984375 16.597656 25.765625 16.632812 25.554688 16.679688 C 25.476562 16.628906 25.476562 16.574219 25.554688 16.519531 C 25.71875 16.507812 25.871094 16.472656 26.007812 16.421875 Z M 26.007812 16.421875 "/>
</g>
<mask id="mask1">
  <g filter="url(#alpha)">
<rect x="0" y="0" width="32" height="32" style="fill:rgb(0%,0%,0%);fill-opacity:0.0235294;stroke:none;"/>
  </g>
</mask>
<clipPath id="clip2">
  <rect x="0" y="0" width="32" height="32"/>
</clipPath>
<g id="surface8" clip-path="url(#clip2)">
<path style=" stroke:none;fill-rule:evenodd;fill:rgb(61.56863%,79.607844%,85.490197%);fill-opacity:1;" d="M 3.078125 15.902344 C 3.078125 16.511719 3.121094 17.117188 3.207031 17.714844 C 3.160156 17.691406 3.128906 17.644531 3.109375 17.585938 C 3.015625 17.015625 3.003906 16.453125 3.078125 15.902344 Z M 3.078125 15.902344 "/>
</g>
</defs>
<g id="surface1">
<path style=" stroke:none;fill-rule:evenodd;fill:rgb(7.450981%,99.215686%,99.215686%);fill-opacity:1;" d="M 16.292969 31.96875 C 16.097656 31.96875 15.902344 31.96875 15.707031 31.96875 C 15.296875 31.796875 14.941406 31.539062 14.640625 31.191406 C 12.960938 29.0625 11.664062 26.710938 10.753906 24.128906 C 9.730469 21.316406 9.179688 18.414062 9.101562 15.417969 C 9.519531 11.15625 10.761719 7.152344 12.824219 3.402344 C 13.480469 2.253906 14.269531 1.207031 15.191406 0.257812 C 15.742188 -0.0585938 16.285156 -0.0390625 16.808594 0.324219 C 18.410156 2.167969 19.675781 4.226562 20.597656 6.511719 C 21.851562 9.542969 22.574219 12.695312 22.769531 15.96875 C 22.433594 21.085938 20.890625 25.792969 18.136719 30.089844 C 17.742188 30.65625 17.300781 31.183594 16.808594 31.675781 C 16.640625 31.792969 16.46875 31.890625 16.292969 31.96875 Z M 15.96875 15.0625 C 16.207031 15.292969 16.359375 15.585938 16.421875 15.933594 C 16.34375 16.316406 16.203125 16.675781 16 17.003906 C 15.832031 16.613281 15.710938 16.226562 15.644531 15.839844 C 15.753906 15.578125 15.859375 15.316406 15.96875 15.0625 Z M 15.96875 15.0625 "/>
<path style=" stroke:none;fill-rule:evenodd;fill:rgb(99.607843%,0.392157%,0%);fill-opacity:1;" d="M 15.902344 1.78125 C 16.046875 1.828125 16.164062 1.914062 16.257812 2.039062 C 19.566406 6.613281 21.1875 11.730469 21.117188 17.394531 C 20.648438 20.9375 19.566406 24.285156 17.878906 27.433594 C 17.34375 28.292969 16.78125 29.136719 16.195312 29.960938 C 16.023438 30.21875 15.847656 30.21875 15.675781 29.960938 C 14.3125 28.164062 13.234375 26.199219 12.4375 24.066406 C 11.597656 21.847656 11.035156 19.558594 10.753906 17.199219 C 10.738281 11.90625 12.207031 7.070312 15.15625 2.6875 C 15.390625 2.371094 15.640625 2.070312 15.902344 1.78125 Z M 15.96875 15.0625 C 15.859375 15.316406 15.753906 15.578125 15.644531 15.839844 C 15.710938 16.226562 15.832031 16.613281 16 17.003906 C 16.203125 16.675781 16.34375 16.316406 16.421875 15.933594 C 16.359375 15.585938 16.207031 15.292969 15.96875 15.0625 Z M 15.96875 15.0625 "/>
<path style=" stroke:none;fill-rule:evenodd;fill:rgb(8.627451%,99.215686%,99.215686%);fill-opacity:1;" d="M -0.03125 18.039062 C -0.03125 16.851562 -0.03125 15.664062 -0.03125 14.476562 C 0.289062 11.5625 1.292969 8.90625 2.980469 6.511719 C 3.140625 6.261719 3.347656 6.058594 3.59375 5.894531 C 4.183594 5.804688 4.53125 6.050781 4.632812 6.640625 C 4.628906 6.777344 4.597656 6.90625 4.535156 7.027344 C 1.5625 11.121094 0.785156 15.589844 2.203125 20.4375 C 2.746094 22.152344 3.546875 23.726562 4.597656 25.164062 C 4.722656 25.800781 4.460938 26.167969 3.820312 26.265625 C 3.714844 26.257812 3.621094 26.226562 3.53125 26.171875 C 2.34375 24.757812 1.449219 23.171875 0.84375 21.410156 C 0.507812 20.289062 0.214844 19.164062 -0.03125 18.039062 Z M -0.03125 18.039062 "/>
<path style=" stroke:none;fill-rule:evenodd;fill:rgb(6.27451%,99.215686%,99.215686%);fill-opacity:1;" d="M 31.96875 15.191406 C 31.96875 15.792969 31.96875 16.398438 31.96875 17.003906 C 31.640625 20.085938 30.617188 22.914062 28.890625 25.488281 C 28.710938 25.734375 28.503906 25.960938 28.273438 26.171875 C 28.054688 26.28125 27.839844 26.28125 27.628906 26.171875 C 27.183594 25.890625 27.066406 25.515625 27.269531 25.035156 C 31.214844 19.4375 31.429688 13.691406 27.917969 7.804688 C 27.726562 7.566406 27.53125 7.332031 27.335938 7.09375 C 27.074219 6.613281 27.171875 6.210938 27.628906 5.894531 C 27.875 5.839844 28.109375 5.863281 28.339844 5.960938 C 29.289062 7 30.03125 8.175781 30.574219 9.488281 C 31.347656 11.324219 31.808594 13.222656 31.96875 15.191406 Z M 31.96875 15.191406 "/>
<path style=" stroke:none;fill-rule:evenodd;fill:rgb(7.843138%,99.215686%,99.215686%);fill-opacity:1;" d="M 3.207031 17.714844 C 3.121094 17.117188 3.078125 16.511719 3.078125 15.902344 C 3.03125 13.78125 3.679688 11.890625 5.019531 10.234375 C 5.78125 10.027344 6.140625 10.320312 6.089844 11.109375 C 5.753906 11.652344 5.449219 12.214844 5.183594 12.792969 C 4.484375 14.964844 4.527344 17.144531 5.3125 19.335938 C 5.550781 19.769531 5.785156 20.199219 6.023438 20.632812 C 6.128906 21.414062 5.792969 21.726562 5.019531 21.570312 C 4.878906 21.429688 4.738281 21.289062 4.597656 21.148438 C 3.917969 20.089844 3.453125 18.949219 3.207031 17.714844 Z M 3.207031 17.714844 "/>
<path style=" stroke:none;fill-rule:evenodd;fill:rgb(5.882353%,99.215686%,99.215686%);fill-opacity:1;" d="M 26.074219 10.203125 C 26.480469 10.117188 26.816406 10.226562 27.078125 10.527344 C 28.492188 12.707031 28.988281 15.082031 28.566406 17.652344 C 28.320312 18.964844 27.824219 20.175781 27.078125 21.28125 C 26.640625 21.707031 26.207031 21.707031 25.78125 21.28125 C 25.71875 21.167969 25.6875 21.050781 25.683594 20.921875 C 26.101562 20.128906 26.46875 19.308594 26.785156 18.460938 C 27.457031 15.9375 27.121094 13.527344 25.78125 11.238281 C 25.664062 10.824219 25.761719 10.476562 26.074219 10.203125 Z M 26.074219 10.203125 "/>
<path style=" stroke:none;fill-rule:evenodd;fill:rgb(6.27451%,99.215686%,99.215686%);fill-opacity:1;" d="M 15.839844 12.210938 C 16.132812 12.175781 16.378906 12.261719 16.582031 12.46875 C 16.925781 13.515625 17.378906 14.507812 17.941406 15.449219 C 18.066406 15.773438 18.066406 16.097656 17.941406 16.421875 C 17.425781 17.308594 16.992188 18.238281 16.648438 19.207031 C 16.214844 19.632812 15.78125 19.632812 15.351562 19.207031 C 15.050781 18.324219 14.664062 17.480469 14.1875 16.679688 C 14.03125 16.328125 13.988281 15.960938 14.058594 15.578125 C 14.628906 14.648438 15.0625 13.652344 15.351562 12.597656 C 15.492188 12.425781 15.652344 12.296875 15.839844 12.210938 Z M 15.96875 15.0625 C 15.859375 15.316406 15.753906 15.578125 15.644531 15.839844 C 15.710938 16.226562 15.832031 16.613281 16 17.003906 C 16.203125 16.675781 16.34375 16.316406 16.421875 15.933594 C 16.359375 15.585938 16.207031 15.292969 15.96875 15.0625 Z M 15.96875 15.0625 "/>
<use xlink:href="#surface5" mask="url(#mask0)"/>
<use xlink:href="#surface8" mask="url(#mask1)"/>
</g>
</svg>
