<?xml version="1.0" encoding="UTF-8"?>
<svg xmlns="http://www.w3.org/2000/svg" xmlns:xlink="http://www.w3.org/1999/xlink" width="32px" height="32px" viewBox="0 0 32 32" version="1.1">
<defs>
<filter id="alpha" filterUnits="objectBoundingBox" x="0%" y="0%" width="100%" height="100%">
  <feColorMatrix type="matrix" in="SourceGraphic" values="0 0 0 0 1 0 0 0 0 1 0 0 0 0 1 0 0 0 1 0"/>
</filter>
<mask id="mask0">
  <g filter="url(#alpha)">
<rect x="0" y="0" width="32" height="32" style="fill:rgb(0%,0%,0%);fill-opacity:0.00392157;stroke:none;"/>
  </g>
</mask>
<clipPath id="clip1">
  <rect x="0" y="0" width="32" height="32"/>
</clipPath>
<g id="surface5" clip-path="url(#clip1)">
<path style=" stroke:none;fill-rule:evenodd;fill:rgb(41.568628%,63.921571%,72.549021%);fill-opacity:1;" d="M 27.042969 14.605469 C 27.097656 14.789062 27.140625 14.984375 27.175781 15.191406 C 27.171875 15.25 27.148438 15.292969 27.109375 15.320312 C 27.054688 15.085938 27.03125 14.847656 27.042969 14.605469 Z M 27.042969 14.605469 "/>
</g>
<mask id="mask1">
  <g filter="url(#alpha)">
<rect x="0" y="0" width="32" height="32" style="fill:rgb(0%,0%,0%);fill-opacity:0.192157;stroke:none;"/>
  </g>
</mask>
<clipPath id="clip2">
  <rect x="0" y="0" width="32" height="32"/>
</clipPath>
<g id="surface8" clip-path="url(#clip2)">
<path style=" stroke:none;fill-rule:evenodd;fill:rgb(65.098041%,84.313726%,89.803922%);fill-opacity:1;" d="M 1.457031 15.902344 C 1.539062 15.980469 1.582031 16.089844 1.585938 16.226562 C 1.574219 16.402344 1.550781 16.574219 1.523438 16.746094 C 1.457031 16.476562 1.4375 16.195312 1.457031 15.902344 Z M 1.457031 15.902344 "/>
</g>
<mask id="mask2">
  <g filter="url(#alpha)">
<rect x="0" y="0" width="32" height="32" style="fill:rgb(0%,0%,0%);fill-opacity:0.121569;stroke:none;"/>
  </g>
</mask>
<clipPath id="clip3">
  <rect x="0" y="0" width="32" height="32"/>
</clipPath>
<g id="surface11" clip-path="url(#clip3)">
<path style=" stroke:none;fill-rule:evenodd;fill:rgb(15.686275%,28.627452%,36.862746%);fill-opacity:1;" d="M 26.136719 16.550781 C 25.941406 16.550781 25.75 16.550781 25.554688 16.550781 C 25.710938 16.503906 25.871094 16.460938 26.039062 16.421875 C 26.085938 16.457031 26.121094 16.5 26.136719 16.550781 Z M 26.136719 16.550781 "/>
</g>
<mask id="mask3">
  <g filter="url(#alpha)">
<rect x="0" y="0" width="32" height="32" style="fill:rgb(0%,0%,0%);fill-opacity:0.0235294;stroke:none;"/>
  </g>
</mask>
<clipPath id="clip4">
  <rect x="0" y="0" width="32" height="32"/>
</clipPath>
<g id="surface14" clip-path="url(#clip4)">
<path style=" stroke:none;fill-rule:evenodd;fill:rgb(58.039218%,75.294119%,83.529413%);fill-opacity:1;" d="M 25.554688 16.550781 C 25.75 16.550781 25.941406 16.550781 26.136719 16.550781 C 25.992188 16.601562 25.796875 16.644531 25.554688 16.679688 C 25.472656 16.632812 25.472656 16.589844 25.554688 16.550781 Z M 25.554688 16.550781 "/>
</g>
<mask id="mask4">
  <g filter="url(#alpha)">
<rect x="0" y="0" width="32" height="32" style="fill:rgb(0%,0%,0%);fill-opacity:0.0235294;stroke:none;"/>
  </g>
</mask>
<clipPath id="clip5">
  <rect x="0" y="0" width="32" height="32"/>
</clipPath>
<g id="surface17" clip-path="url(#clip5)">
<path style=" stroke:none;fill-rule:evenodd;fill:rgb(61.56863%,79.607844%,85.490197%);fill-opacity:1;" d="M 3.078125 15.902344 C 3.078125 16.511719 3.121094 17.117188 3.207031 17.714844 C 3.160156 17.691406 3.128906 17.644531 3.109375 17.585938 C 3.015625 17.015625 3.003906 16.453125 3.078125 15.902344 Z M 3.078125 15.902344 "/>
</g>
</defs>
<g id="surface1">
<path style=" stroke:none;fill-rule:evenodd;fill:rgb(5.490196%,99.607843%,99.215686%);fill-opacity:1;" d="M 16.292969 31.96875 C 16.097656 31.96875 15.902344 31.96875 15.707031 31.96875 C 15.296875 31.796875 14.941406 31.539062 14.640625 31.191406 C 12.960938 29.0625 11.664062 26.710938 10.753906 24.128906 C 9.730469 21.316406 9.179688 18.414062 9.101562 15.417969 C 9.519531 11.15625 10.761719 7.152344 12.824219 3.402344 C 13.480469 2.253906 14.269531 1.207031 15.191406 0.257812 C 15.742188 -0.0585938 16.285156 -0.0390625 16.808594 0.324219 C 18.410156 2.167969 19.675781 4.226562 20.597656 6.511719 C 21.851562 9.542969 22.574219 12.695312 22.769531 15.96875 C 22.433594 21.085938 20.890625 25.792969 18.136719 30.089844 C 17.742188 30.65625 17.300781 31.183594 16.808594 31.675781 C 16.640625 31.792969 16.46875 31.890625 16.292969 31.96875 Z M 15.96875 15.0625 C 16.207031 15.292969 16.359375 15.585938 16.421875 15.933594 C 16.34375 16.316406 16.203125 16.675781 16 17.003906 C 15.832031 16.613281 15.710938 16.226562 15.644531 15.839844 C 15.753906 15.578125 15.859375 15.316406 15.96875 15.0625 Z M 15.96875 15.0625 "/>
<path style=" stroke:none;fill-rule:evenodd;fill:rgb(0%,99.607843%,0.392157%);fill-opacity:1;" d="M 15.839844 1.78125 C 16.015625 1.796875 16.15625 1.882812 16.257812 2.039062 C 19.597656 6.625 21.21875 11.765625 21.117188 17.457031 C 20.625 21.027344 19.523438 24.398438 17.8125 27.5625 C 17.449219 28.222656 17.039062 28.851562 16.582031 29.441406 C 16.386719 29.703125 16.171875 29.941406 15.933594 30.152344 C 15.808594 30.09375 15.703125 30.007812 15.613281 29.894531 C 14.261719 28.0625 13.183594 26.078125 12.371094 23.933594 C 11.578125 21.777344 11.039062 19.550781 10.753906 17.261719 C 10.707031 11.515625 12.402344 6.355469 15.839844 1.78125 Z M 15.96875 15.0625 C 15.859375 15.316406 15.753906 15.578125 15.644531 15.839844 C 15.710938 16.226562 15.832031 16.613281 16 17.003906 C 16.203125 16.675781 16.34375 16.316406 16.421875 15.933594 C 16.359375 15.585938 16.207031 15.292969 15.96875 15.0625 Z M 15.96875 15.0625 "/>
<path style=" stroke:none;fill-rule:evenodd;fill:rgb(7.450981%,99.215686%,99.215686%);fill-opacity:1;" d="M 1.457031 15.902344 C 1.4375 16.195312 1.457031 16.476562 1.523438 16.746094 C 1.761719 19.847656 2.785156 22.652344 4.597656 25.164062 C 4.722656 25.800781 4.460938 26.167969 3.820312 26.265625 C 3.714844 26.257812 3.621094 26.226562 3.53125 26.171875 C 2.34375 24.757812 1.449219 23.171875 0.84375 21.410156 C 0.507812 20.289062 0.214844 19.164062 -0.03125 18.039062 C -0.03125 16.851562 -0.03125 15.664062 -0.03125 14.476562 C 0.289062 11.40625 1.378906 8.644531 3.238281 6.1875 C 3.765625 5.710938 4.21875 5.773438 4.597656 6.378906 C 4.640625 6.554688 4.640625 6.726562 4.597656 6.898438 C 2.605469 9.5625 1.558594 12.5625 1.457031 15.902344 Z M 1.457031 15.902344 "/>
<path style=" stroke:none;fill-rule:evenodd;fill:rgb(6.27451%,99.215686%,99.215686%);fill-opacity:1;" d="M 31.96875 15.191406 C 31.96875 15.792969 31.96875 16.398438 31.96875 17.003906 C 31.640625 20.085938 30.617188 22.914062 28.890625 25.488281 C 28.710938 25.734375 28.503906 25.960938 28.273438 26.171875 C 28.054688 26.28125 27.839844 26.28125 27.628906 26.171875 C 27.183594 25.890625 27.066406 25.515625 27.269531 25.035156 C 31.214844 19.4375 31.429688 13.691406 27.917969 7.804688 C 27.726562 7.566406 27.53125 7.332031 27.335938 7.09375 C 27.074219 6.613281 27.171875 6.210938 27.628906 5.894531 C 27.875 5.839844 28.109375 5.863281 28.339844 5.960938 C 29.289062 7 30.03125 8.175781 30.574219 9.488281 C 31.347656 11.324219 31.808594 13.222656 31.96875 15.191406 Z M 31.96875 15.191406 "/>
<path style=" stroke:none;fill-rule:evenodd;fill:rgb(7.843138%,99.215686%,99.215686%);fill-opacity:1;" d="M 3.207031 17.714844 C 3.121094 17.117188 3.078125 16.511719 3.078125 15.902344 C 3.03125 13.78125 3.679688 11.890625 5.019531 10.234375 C 5.78125 10.027344 6.140625 10.320312 6.089844 11.109375 C 5.753906 11.652344 5.449219 12.214844 5.183594 12.792969 C 4.484375 14.964844 4.527344 17.144531 5.3125 19.335938 C 5.550781 19.769531 5.785156 20.199219 6.023438 20.632812 C 6.128906 21.414062 5.792969 21.726562 5.019531 21.570312 C 4.878906 21.429688 4.738281 21.289062 4.597656 21.148438 C 3.917969 20.089844 3.453125 18.949219 3.207031 17.714844 Z M 3.207031 17.714844 "/>
<path style=" stroke:none;fill-rule:evenodd;fill:rgb(5.098039%,99.215686%,99.215686%);fill-opacity:1;" d="M 27.109375 15.320312 C 27.148438 15.292969 27.171875 15.25 27.175781 15.191406 C 27.140625 14.984375 27.097656 14.789062 27.042969 14.605469 C 26.847656 13.402344 26.425781 12.277344 25.78125 11.238281 C 25.640625 10.429688 25.976562 10.09375 26.785156 10.234375 C 27.855469 11.539062 28.46875 13.042969 28.632812 14.738281 C 28.917969 17.109375 28.402344 19.289062 27.078125 21.28125 C 26.640625 21.707031 26.207031 21.707031 25.78125 21.28125 C 25.71875 21.167969 25.6875 21.050781 25.683594 20.921875 C 26.101562 20.128906 26.46875 19.308594 26.785156 18.460938 C 26.742188 18.316406 26.773438 18.175781 26.882812 18.039062 C 27.09375 17.136719 27.171875 16.230469 27.109375 15.320312 Z M 27.109375 15.320312 "/>
<path style=" stroke:none;fill-rule:evenodd;fill:rgb(3.921569%,99.607843%,99.215686%);fill-opacity:1;" d="M 15.902344 12.210938 C 16.171875 12.1875 16.398438 12.277344 16.582031 12.46875 C 16.875 13.484375 17.304688 14.433594 17.878906 15.320312 C 18.058594 15.679688 18.082031 16.046875 17.941406 16.421875 C 17.425781 17.308594 16.992188 18.238281 16.648438 19.207031 C 16.214844 19.632812 15.78125 19.632812 15.351562 19.207031 C 15.050781 18.324219 14.664062 17.480469 14.1875 16.679688 C 14.003906 16.277344 13.984375 15.867188 14.121094 15.449219 C 14.675781 14.558594 15.085938 13.609375 15.351562 12.597656 C 15.503906 12.410156 15.6875 12.28125 15.902344 12.210938 Z M 15.96875 15.0625 C 15.859375 15.316406 15.753906 15.578125 15.644531 15.839844 C 15.710938 16.226562 15.832031 16.613281 16 17.003906 C 16.203125 16.675781 16.34375 16.316406 16.421875 15.933594 C 16.359375 15.585938 16.207031 15.292969 15.96875 15.0625 Z M 15.96875 15.0625 "/>
<use xlink:href="#surface5" mask="url(#mask0)"/>
<use xlink:href="#surface8" mask="url(#mask1)"/>
<use xlink:href="#surface11" mask="url(#mask2)"/>
<use xlink:href="#surface14" mask="url(#mask3)"/>
<use xlink:href="#surface17" mask="url(#mask4)"/>
</g>
</svg>
