<?xml version="1.0" encoding="UTF-8"?>
<!DOCTYPE svg PUBLIC "-//W3C//DTD SVG 1.1//EN" "http://www.w3.org/Graphics/SVG/1.1/DTD/svg11.dtd">
<svg xmlns="http://www.w3.org/2000/svg" version="1.1" width="494px" height="494px" style="shape-rendering:geometricPrecision; text-rendering:geometricPrecision; image-rendering:optimizeQuality; fill-rule:evenodd; clip-rule:evenodd" xmlns:xlink="http://www.w3.org/1999/xlink">
<g><path style="opacity:1" fill="#13fdfd" d="M 251.5,493.5 C 248.5,493.5 245.5,493.5 242.5,493.5C 236.129,490.879 230.629,486.879 226,481.5C 200.076,448.671 180.076,412.338 166,372.5C 150.234,329.072 141.734,284.238 140.5,238C 146.971,172.254 166.137,110.42 198,52.5C 208.1,34.8111 220.266,18.6444 234.5,4C 243.04,-0.927357 251.373,-0.594023 259.5,5C 284.217,33.439 303.717,65.2723 318,100.5C 337.32,147.295 348.487,195.961 351.5,246.5C 346.331,325.504 322.498,398.171 280,464.5C 273.919,473.252 267.086,481.418 259.5,489C 256.901,490.795 254.234,492.295 251.5,493.5 Z M 246.5,232.5 C 250.22,236.101 252.553,240.601 253.5,246C 252.292,251.91 250.125,257.41 247,262.5C 244.377,256.486 242.544,250.486 241.5,244.5C 243.174,240.471 244.841,236.471 246.5,232.5 Z"/></g>
<g><path style="opacity:1" fill="#fe0100" d="M 245.5,27.5 C 247.716,28.2026 249.549,29.5359 251,31.5C 302.075,102.066 327.075,181.066 326,268.5C 318.733,323.248 302.066,374.914 276,423.5C 267.726,436.772 259.059,449.772 250,462.5C 247.333,466.5 244.667,466.5 242,462.5C 220.975,434.801 204.308,404.467 192,371.5C 179.018,337.265 170.351,301.932 166,265.5C 165.755,183.797 188.422,109.13 234,41.5C 237.603,36.6186 241.436,31.9519 245.5,27.5 Z M 246.5,232.5 C 244.841,236.471 243.174,240.471 241.5,244.5C 242.544,250.486 244.377,256.486 247,262.5C 250.125,257.41 252.292,251.91 253.5,246C 252.553,240.601 250.22,236.101 246.5,232.5 Z"/></g>
<g><path style="opacity:1" fill="#16fdfd" d="M -0.5,278.5 C -0.5,260.167 -0.5,241.833 -0.5,223.5C 4.44471,178.498 19.9447,137.498 46,100.5C 48.5,96.6667 51.6667,93.5 55.5,91C 64.5985,89.5988 69.9318,93.4321 71.5,102.5C 71.4847,104.634 70.9847,106.634 70,108.5C 24.0971,171.673 12.0971,240.673 34,315.5C 42.392,341.952 54.7253,366.285 71,388.5C 72.8945,398.278 68.8945,403.945 59,405.5C 57.3732,405.375 55.8732,404.875 54.5,404C 36.1798,382.21 22.3465,357.71 13,330.5C 7.84279,313.2 3.34279,295.866 -0.5,278.5 Z"/></g>
<g><path style="opacity:1" fill="#10fdfd" d="M 493.5,234.5 C 493.5,243.833 493.5,253.167 493.5,262.5C 488.477,310.066 472.644,353.733 446,393.5C 443.203,397.299 440.036,400.799 436.5,404C 433.107,405.695 429.773,405.695 426.5,404C 419.653,399.71 417.819,393.877 421,386.5C 481.878,300.045 485.212,211.378 431,120.5C 428,116.833 425,113.167 422,109.5C 417.949,102.072 419.449,95.905 426.5,91C 430.295,90.1628 433.961,90.4961 437.5,92C 452.123,108.054 463.623,126.221 472,146.5C 483.908,174.798 491.075,204.131 493.5,234.5 Z"/></g>
<g><path style="opacity:1" fill="#14fdfd" d="M 49.5,273.5 C 48.1723,264.221 47.5057,254.888 47.5,245.5C 46.8088,212.742 56.8088,183.575 77.5,158C 89.2721,154.805 94.7721,159.305 94,171.5C 88.81,179.88 84.1433,188.546 80,197.5C 69.2424,230.994 69.909,264.661 82,298.5C 85.6667,305.167 89.3333,311.833 93,318.5C 94.6105,330.556 89.4438,335.389 77.5,333C 75.3333,330.833 73.1667,328.667 71,326.5C 60.4981,310.166 53.3315,292.499 49.5,273.5 Z"/></g>
<g><path style="opacity:0.999" fill="#0ffdfd" d="M 402.5,157.5 C 408.786,156.179 413.953,157.846 418,162.5C 439.835,196.168 447.502,232.835 441,272.5C 437.198,292.768 429.531,311.435 418,328.5C 411.261,335.112 404.594,335.112 398,328.5C 397.042,326.801 396.542,324.967 396.5,323C 402.948,310.764 408.615,298.097 413.5,285C 423.85,246.006 418.683,208.839 398,173.5C 396.21,167.073 397.71,161.74 402.5,157.5 Z"/></g>
<g><path style="opacity:1" fill="#10fdfd" d="M 244.5,188.5 C 249.039,187.957 252.873,189.29 256,192.5C 261.269,208.65 268.269,223.983 277,238.5C 278.921,243.516 278.921,248.516 277,253.5C 268.983,267.202 262.316,281.535 257,296.5C 250.301,303.09 243.634,303.09 237,296.5C 232.352,282.87 226.352,269.87 219,257.5C 216.629,252.061 215.963,246.394 217,240.5C 225.862,226.111 232.528,210.778 237,194.5C 239.134,191.847 241.634,189.847 244.5,188.5 Z M 246.5,232.5 C 244.841,236.471 243.174,240.471 241.5,244.5C 242.544,250.486 244.377,256.486 247,262.5C 250.125,257.41 252.292,251.91 253.5,246C 252.553,240.601 250.22,236.101 246.5,232.5 Z"/></g>
<g><path style="opacity:0.023" fill="#729aaf" d="M 401.5,253.5 C 402.627,254.122 403.627,254.955 404.5,256C 401.11,256.246 397.777,256.746 394.5,257.5C 393.289,256.726 393.289,255.893 394.5,255C 397.036,254.814 399.369,254.314 401.5,253.5 Z"/></g>
<g><path style="opacity:0.024" fill="#9dcbda" d="M 47.5,245.5 C 47.5057,254.888 48.1723,264.221 49.5,273.5C 48.7784,273.082 48.2784,272.416 48,271.5C 46.5669,262.688 46.4002,254.022 47.5,245.5 Z"/></g>
</svg>
