<?xml version="1.0" encoding="UTF-8"?>
<!DOCTYPE svg PUBLIC "-//W3C//DTD SVG 1.1//EN" "http://www.w3.org/Graphics/SVG/1.1/DTD/svg11.dtd">
<svg xmlns="http://www.w3.org/2000/svg" version="1.1" width="494px" height="494px" style="shape-rendering:geometricPrecision; text-rendering:geometricPrecision; image-rendering:optimizeQuality; fill-rule:evenodd; clip-rule:evenodd" xmlns:xlink="http://www.w3.org/1999/xlink">
<g><path style="opacity:1" fill="#0efefd" d="M 251.5,493.5 C 248.5,493.5 245.5,493.5 242.5,493.5C 236.129,490.879 230.629,486.879 226,481.5C 200.076,448.671 180.076,412.338 166,372.5C 150.234,329.072 141.734,284.238 140.5,238C 146.971,172.254 166.137,110.42 198,52.5C 208.1,34.8111 220.266,18.6444 234.5,4C 243.04,-0.927357 251.373,-0.594023 259.5,5C 284.217,33.439 303.717,65.2723 318,100.5C 337.32,147.295 348.487,195.961 351.5,246.5C 346.331,325.504 322.498,398.171 280,464.5C 273.919,473.252 267.086,481.418 259.5,489C 256.901,490.795 254.234,492.295 251.5,493.5 Z M 246.5,232.5 C 250.22,236.101 252.553,240.601 253.5,246C 252.292,251.91 250.125,257.41 247,262.5C 244.377,256.486 242.544,250.486 241.5,244.5C 243.174,240.471 244.841,236.471 246.5,232.5 Z"/></g>
<g><path style="opacity:1" fill="#00fe01" d="M 244.5,27.5 C 247.263,27.7438 249.429,29.0771 251,31.5C 302.54,102.283 327.54,181.616 326,269.5C 318.402,324.627 301.402,376.627 275,425.5C 269.401,435.713 263.067,445.38 256,454.5C 252.966,458.529 249.633,462.196 246,465.5C 244.056,464.561 242.389,463.227 241,461.5C 220.195,433.233 203.528,402.566 191,369.5C 178.75,336.165 170.417,301.832 166,266.5C 165.302,177.765 191.468,98.0982 244.5,27.5 Z M 246.5,232.5 C 244.841,236.471 243.174,240.471 241.5,244.5C 242.544,250.486 244.377,256.486 247,262.5C 250.125,257.41 252.292,251.91 253.5,246C 252.553,240.601 250.22,236.101 246.5,232.5 Z"/></g>
<g><path style="opacity:1" fill="#13fdfd" d="M 22.5,245.5 C 22.1818,250.032 22.5151,254.366 23.5,258.5C 27.1795,306.38 43.0128,349.714 71,388.5C 72.8945,398.278 68.8945,403.945 59,405.5C 57.3732,405.375 55.8732,404.875 54.5,404C 36.1798,382.21 22.3465,357.71 13,330.5C 7.84279,313.2 3.34279,295.866 -0.5,278.5C -0.5,260.167 -0.5,241.833 -0.5,223.5C 4.46419,176.1 21.2975,133.433 50,95.5C 58.1225,88.141 65.1225,89.141 71,98.5C 71.6667,101.167 71.6667,103.833 71,106.5C 40.2443,147.595 24.0776,193.928 22.5,245.5 Z"/></g>
<g><path style="opacity:1" fill="#10fdfd" d="M 493.5,234.5 C 493.5,243.833 493.5,253.167 493.5,262.5C 488.477,310.066 472.644,353.733 446,393.5C 443.203,397.299 440.036,400.799 436.5,404C 433.107,405.695 429.773,405.695 426.5,404C 419.653,399.71 417.819,393.877 421,386.5C 481.878,300.045 485.212,211.378 431,120.5C 428,116.833 425,113.167 422,109.5C 417.949,102.072 419.449,95.905 426.5,91C 430.295,90.1628 433.961,90.4961 437.5,92C 452.123,108.054 463.623,126.221 472,146.5C 483.908,174.798 491.075,204.131 493.5,234.5 Z"/></g>
<g><path style="opacity:1" fill="#14fdfd" d="M 49.5,273.5 C 48.1723,264.221 47.5057,254.888 47.5,245.5C 46.8088,212.742 56.8088,183.575 77.5,158C 89.2721,154.805 94.7721,159.305 94,171.5C 88.81,179.88 84.1433,188.546 80,197.5C 69.2424,230.994 69.909,264.661 82,298.5C 85.6667,305.167 89.3333,311.833 93,318.5C 94.6105,330.556 89.4438,335.389 77.5,333C 75.3333,330.833 73.1667,328.667 71,326.5C 60.4981,310.166 53.3315,292.499 49.5,273.5 Z"/></g>
<g><path style="opacity:0.999" fill="#0dfdfd" d="M 418.5,236.5 C 419.124,236.083 419.457,235.416 419.5,234.5C 419.009,231.326 418.343,228.326 417.5,225.5C 414.463,206.891 407.963,189.558 398,173.5C 395.833,161 401,155.833 413.5,158C 430.007,178.162 439.507,201.328 442,227.5C 446.434,264.099 438.434,297.766 418,328.5C 411.261,335.112 404.594,335.112 398,328.5C 397.042,326.801 396.542,324.967 396.5,323C 402.948,310.764 408.615,298.097 413.5,285C 412.825,282.758 413.325,280.591 415,278.5C 418.273,264.53 419.44,250.53 418.5,236.5 Z"/></g>
<g><path style="opacity:1" fill="#0afefd" d="M 245.5,188.5 C 249.676,188.168 253.176,189.502 256,192.5C 260.502,208.17 267.169,222.836 276,236.5C 278.792,242.035 279.125,247.702 277,253.5C 268.983,267.202 262.316,281.535 257,296.5C 250.313,303.061 243.646,303.061 237,296.5C 232.352,282.87 226.352,269.87 219,257.5C 216.211,251.28 215.877,244.946 218,238.5C 226.53,224.775 232.863,210.108 237,194.5C 239.322,191.605 242.155,189.605 245.5,188.5 Z M 246.5,232.5 C 244.841,236.471 243.174,240.471 241.5,244.5C 242.544,250.486 244.377,256.486 247,262.5C 250.125,257.41 252.292,251.91 253.5,246C 252.553,240.601 250.22,236.101 246.5,232.5 Z"/></g>
<g><path style="opacity:0.004" fill="#6aa3b9" d="M 417.5,225.5 C 418.343,228.326 419.009,231.326 419.5,234.5C 419.457,235.416 419.124,236.083 418.5,236.5C 417.656,232.901 417.323,229.234 417.5,225.5 Z"/></g>
<g><path style="opacity:0.192" fill="#a6d7e5" d="M 22.5,245.5 C 23.7773,246.694 24.4439,248.36 24.5,250.5C 24.2973,253.197 23.964,255.864 23.5,258.5C 22.5151,254.366 22.1818,250.032 22.5,245.5 Z"/></g>
<g><path style="opacity:0.122" fill="#28495e" d="M 403.5,255.5 C 400.5,255.5 397.5,255.5 394.5,255.5C 396.893,254.79 399.393,254.123 402,253.5C 402.717,254.044 403.217,254.711 403.5,255.5 Z"/></g>
<g><path style="opacity:0.023" fill="#94c0d5" d="M 394.5,255.5 C 397.5,255.5 400.5,255.5 403.5,255.5C 401.231,256.311 398.231,256.978 394.5,257.5C 393.227,256.743 393.227,256.077 394.5,255.5 Z"/></g>
<g><path style="opacity:0.024" fill="#9dcbda" d="M 47.5,245.5 C 47.5057,254.888 48.1723,264.221 49.5,273.5C 48.7784,273.082 48.2784,272.416 48,271.5C 46.5669,262.688 46.4002,254.022 47.5,245.5 Z"/></g>
</svg>
